<svg xmlns="http://www.w3.org/2000/svg" viewBox="0 0 720 200" width="720" height="200" role="img" aria-label="Internships posted per week, last 16 weeks"><title>Internships posted per week</title><g font-family="-apple-system,Segoe UI,Roboto,sans-serif" font-size="11"><line x1="38" y1="174.0" x2="706" y2="174.0" stroke="#30363d" stroke-width="1"/><text x="32" y="178.0" text-anchor="end" fill="#8b949e">0</text><line x1="38" y1="98.0" x2="706" y2="98.0" stroke="#30363d" stroke-width="1"/><text x="32" y="102.0" text-anchor="end" fill="#8b949e">26</text><line x1="38" y1="22.0" x2="706" y2="22.0" stroke="#30363d" stroke-width="1"/><text x="32" y="26.0" text-anchor="end" fill="#8b949e">51</text><path d="M38.0,174 L38.0,162.1 L82.5,165.1 L127.1,165.1 L171.6,165.1 L216.1,153.1 L260.7,168.0 L305.2,102.5 L349.7,132.3 L394.3,132.3 L438.8,129.3 L483.3,57.8 L527.9,111.4 L572.4,78.6 L616.9,36.9 L661.5,45.8 L706.0,22.0 L706.0,174 Z" fill="#2f81f7" fill-opacity="0.12"/><polyline points="38.0,162.1 82.5,165.1 127.1,165.1 171.6,165.1 216.1,153.1 260.7,168.0 305.2,102.5 349.7,132.3 394.3,132.3 438.8,129.3 483.3,57.8 527.9,111.4 572.4,78.6 616.9,36.9 661.5,45.8 706.0,22.0" fill="none" stroke="#2f81f7" stroke-width="2" stroke-linejoin="round" stroke-linecap="round"/><circle cx="706.0" cy="22.0" r="3.5" fill="#2f81f7"/><text x="706.0" y="13.0" text-anchor="middle" fill="#e6edf3" font-weight="600">51</text><text x="38.0" y="192" text-anchor="middle" fill="#8b949e">Apr 20</text><text x="216.1" y="192" text-anchor="middle" fill="#8b949e">May 18</text><text x="394.3" y="192" text-anchor="middle" fill="#8b949e">Jun 15</text><text x="572.4" y="192" text-anchor="middle" fill="#8b949e">Jul 13</text><text x="706.0" y="192" text-anchor="middle" fill="#8b949e">Aug 03</text></g></svg>