<svg xmlns="http://www.w3.org/2000/svg" viewBox="0 0 720 200" width="720" height="200" role="img" aria-label="Internships posted per week, last 16 weeks"><title>Internships posted per week</title><g font-family="-apple-system,Segoe UI,Roboto,sans-serif" font-size="11"><line x1="38" y1="174.0" x2="706" y2="174.0" stroke="#30363d" stroke-width="1"/><text x="32" y="178.0" text-anchor="end" fill="#8b949e">0</text><line x1="38" y1="98.0" x2="706" y2="98.0" stroke="#30363d" stroke-width="1"/><text x="32" y="102.0" text-anchor="end" fill="#8b949e">76</text><line x1="38" y1="22.0" x2="706" y2="22.0" stroke="#30363d" stroke-width="1"/><text x="32" y="26.0" text-anchor="end" fill="#8b949e">153</text><path d="M38.0,174 L38.0,171.0 L82.5,167.0 L127.1,172.0 L171.6,150.2 L216.1,160.1 L260.7,160.1 L305.2,159.1 L349.7,135.3 L394.3,153.1 L438.8,142.2 L483.3,128.3 L527.9,130.3 L572.4,113.4 L616.9,98.5 L661.5,51.8 L706.0,22.0 L706.0,174 Z" fill="#2f81f7" fill-opacity="0.12"/><polyline points="38.0,171.0 82.5,167.0 127.1,172.0 171.6,150.2 216.1,160.1 260.7,160.1 305.2,159.1 349.7,135.3 394.3,153.1 438.8,142.2 483.3,128.3 527.9,130.3 572.4,113.4 616.9,98.5 661.5,51.8 706.0,22.0" fill="none" stroke="#2f81f7" stroke-width="2" stroke-linejoin="round" stroke-linecap="round"/><circle cx="706.0" cy="22.0" r="3.5" fill="#2f81f7"/><text x="706.0" y="13.0" text-anchor="middle" fill="#e6edf3" font-weight="600">153</text><text x="38.0" y="192" text-anchor="middle" fill="#8b949e">May 11</text><text x="216.1" y="192" text-anchor="middle" fill="#8b949e">Jun 08</text><text x="394.3" y="192" text-anchor="middle" fill="#8b949e">Jul 06</text><text x="572.4" y="192" text-anchor="middle" fill="#8b949e">Aug 03</text><text x="706.0" y="192" text-anchor="middle" fill="#8b949e">Aug 24</text></g></svg>